<svg width="18.000000" height="18.000000" viewBox="0 0 18 18" fill="none" xmlns="http://www.w3.org/2000/svg" xmlns:xlink="http://www.w3.org/1999/xlink">
	<defs/>
	<path id="Vector" d="M10 1C10 0.447266 9.55225 0 9 0C8.44775 0 8 0.447266 8 1L8 8L1 8C0.447754 8 0 8.44727 0 9C0 9.55273 0.447754 10 1 10L8 10L8 17C8 17.5527 8.44775 18 9 18C9.55225 18 10 17.5527 10 17L10 10L17 10C17.5522 10 18 9.55273 18 9C18 8.44727 17.5522 8 17 8L10 8L10 1Z" fill="#FFFFFF" fill-opacity="1.000000" fill-rule="evenodd"/>
</svg>
