<svg width="13.333496" height="15.000000" viewBox="0 0 13.3335 15" fill="none" xmlns="http://www.w3.org/2000/svg" xmlns:xlink="http://www.w3.org/1999/xlink">
	<desc>
			Created with Pixso.
	</desc>
	<defs/>
	<path id="Vector" d="M2.5 15C2.0415 15 1.64941 14.8379 1.32324 14.5117C0.99707 14.1855 0.833984 13.793 0.833496 13.334L0.833496 2.5L0 2.5L0 0.833984L4.1665 0.833984L4.1665 0L9.1665 0L9.1665 0.833984L13.3335 0.833984L13.3335 2.5L12.5 2.5L12.5 13.334C12.5 13.791 12.3369 14.1836 12.0107 14.5117C11.6846 14.8379 11.292 15 10.8335 15L2.5 15ZM4.1665 11.666L5.8335 11.666L5.8335 4.16602L4.1665 4.16602L4.1665 11.666ZM7.5 11.666L9.1665 11.666L9.1665 4.16602L7.5 4.16602L7.5 11.666Z" fill="#EE3030" fill-opacity="1.000000" fill-rule="nonzero"/>
</svg>