<svg width="30" height="30" viewBox="0 0 30 30" fill="none" xmlns="http://www.w3.org/2000/svg">
<path d="M9 13.99H8V15.99H9V13.99ZM21 15.99H22V13.99H21V15.99ZM9 19.986H8V21.986H9V19.986ZM21 22H22V20H21V22ZM9 7.994H8V9.994H9V7.994ZM17 10H18V8H17V10ZM21 1L21.708 0.292L21.414 0H21V1ZM27 7H28V6.586L27.708 6.292L27 7ZM9 15.99H21V13.99H9V15.99ZM9 21.986L21 22V20L9 19.986V21.986ZM9 9.994L17 10V8L9 7.994V9.994ZM25 28H5V30H25V28ZM4 27V3H2V27H4ZM5 2H21V0H5V2ZM26 7V27H28V7H26ZM20.292 1.708L26.292 7.708L27.708 6.292L21.708 0.292L20.292 1.708ZM5 28C4.73478 28 4.48043 27.8946 4.29289 27.7071C4.10536 27.5196 4 27.2652 4 27H2C2 27.7956 2.31607 28.5587 2.87868 29.1213C3.44129 29.6839 4.20435 30 5 30V28ZM25 30C25.7956 30 26.5587 29.6839 27.1213 29.1213C27.6839 28.5587 28 27.7956 28 27H26C26 27.2652 25.8946 27.5196 25.7071 27.7071C25.5196 27.8946 25.2652 28 25 28V30ZM4 3C4 2.73478 4.10536 2.48043 4.29289 2.29289C4.48043 2.10536 4.73478 2 5 2V0C4.20435 0 3.44129 0.31607 2.87868 0.87868C2.31607 1.44129 2 2.20435 2 3H4Z" fill="#1A7FDB"/>
</svg>
