<svg width="30" height="30" viewBox="0 0 30 30" fill="none" xmlns="http://www.w3.org/2000/svg">
<g clip-path="url(#clip0_135_369)">
<path d="M9.64284 8.57129L15 13.9284M15 13.9284L20.3571 8.57129M15 13.9284V1.07129M28.9286 17.1427H21.4286C20.8602 17.1427 20.3152 17.3685 19.9133 17.7703C19.5115 18.1722 19.2857 18.7173 19.2857 19.2856C19.2857 20.4222 18.8342 21.5123 18.0304 22.316C17.2267 23.1198 16.1366 23.5713 15 23.5713C13.8633 23.5713 12.7733 23.1198 11.9695 22.316C11.1658 21.5123 10.7143 20.4222 10.7143 19.2856C10.7143 18.7173 10.4885 18.1722 10.0866 17.7703C9.68478 17.3685 9.13973 17.1427 8.57141 17.1427H1.07141V26.7856C1.07141 27.3539 1.29718 27.8989 1.69904 28.3008C2.1009 28.7027 2.64595 28.9284 3.21427 28.9284H26.7857C27.354 28.9284 27.8991 28.7027 28.3009 28.3008C28.7028 27.8989 28.9286 27.3539 28.9286 26.7856V17.1427Z" stroke="#1A7FDB" stroke-width="2" stroke-linecap="round" stroke-linejoin="round"/>
</g>
<defs>
<clipPath id="clip0_135_369">
<rect width="30" height="30" fill="white"/>
</clipPath>
</defs>
</svg>
