<svg width="32" height="32" viewBox="0 0 32 32" xmlns="http://www.w3.org/2000/svg">
  <path 
    d="M22.1945 4.4581L27.5419 9.80548M8.49983 8.50051H2.87496C2.37769 8.50051 1.90079 8.69805 1.54916 9.04967C1.19754 9.40129 1 9.8782 1 10.3755V29.125C1 29.6223 1.19754 30.0992 1.54916 30.4508C1.90079 30.8025 2.37769 31 2.87496 31H23.4995C23.9968 31 24.4737 30.8025 24.8253 30.4508C25.1769 30.0992 25.3745 29.6223 25.3745 29.125V20.6877M29.8912 2.1069C30.2425 2.45809 30.5212 2.87506 30.7114 3.33397C30.9015 3.79289 30.9994 4.28478 30.9994 4.78153C30.9994 5.27828 30.9015 5.77016 30.7114 6.22908C30.5212 6.688 30.2425 7.10497 29.8912 7.45616L17.059 20.2884L10.3748 21.6252L11.7116 14.941L24.5438 2.10878C24.8948 1.75729 25.3115 1.47844 25.7703 1.28819C26.2291 1.09793 26.7209 1 27.2175 1C27.7142 1 28.206 1.09793 28.6648 1.28819C29.1236 1.47844 29.5403 1.75729 29.8912 2.10878V2.1069Z" 
    stroke="#1A7FDB" 
    stroke-width="2" 
    stroke-linecap="round" 
    stroke-linejoin="round" 
    fill="transparent"
  />
</svg>