<svg width="22" height="22" viewBox="0 0 22 22" fill="none" xmlns="http://www.w3.org/2000/svg">
<path d="M11 7.3335V11.0002L12.8333 12.8335" stroke="white" stroke-width="2" stroke-linecap="round" stroke-linejoin="round"/>
<path d="M2.7959 10.0834C3.00132 8.06678 3.94197 6.19637 5.4384 4.82903C6.93483 3.46169 8.88229 2.69312 10.9092 2.66997C12.9361 2.64682 14.9006 3.3707 16.4279 4.70351C17.9552 6.03632 18.9383 7.88475 19.1897 9.89615C19.4411 11.9075 18.9433 13.9411 17.7911 15.6088C16.6389 17.2766 14.913 18.4618 12.9427 18.9383C10.9725 19.4148 8.89577 19.1492 7.10881 18.1923C5.32185 17.2354 3.94973 15.6541 3.25423 13.7501M2.7959 18.3334V13.7501H7.37923" stroke="white" stroke-width="2" stroke-linecap="round" stroke-linejoin="round"/>
</svg>
