<svg width="17.999512" height="18.000000" viewBox="0 0 17.9995 18" fill="none" xmlns="http://www.w3.org/2000/svg" xmlns:xlink="http://www.w3.org/1999/xlink">
	<desc>
			Created with Pixso.
	</desc>
	<defs/>
	<path id="Vector" d="M13.104 4.70312C13.1772 4.63281 13.2632 4.57812 13.3579 4.54102C13.4521 4.50391 13.5527 4.48633 13.6543 4.48828C13.7559 4.49023 13.8555 4.51172 13.9482 4.55273C14.0415 4.59375 14.1255 4.65234 14.1953 4.72461L17.7852 8.4668C17.9229 8.60938 17.9995 8.80078 17.9995 9C17.9995 9.19922 17.9229 9.39062 17.7852 9.5332L14.1953 13.2754C14.1255 13.3477 14.0415 13.4062 13.9487 13.4473C13.856 13.4883 13.7559 13.5098 13.6548 13.5117C13.5532 13.5137 13.4526 13.4961 13.3584 13.459C13.2642 13.4219 13.1777 13.3672 13.1045 13.2969C13.0317 13.2266 12.9731 13.1426 12.9326 13.0508C12.8916 12.957 12.8696 12.8574 12.8677 12.7559C12.8657 12.6543 12.8838 12.5547 12.9204 12.459C12.9575 12.3652 13.0122 12.2793 13.0825 12.207L15.4185 9.77148L8.25244 9.77148C8.04785 9.77148 7.85156 9.68945 7.70703 9.54492C7.56201 9.40039 7.48096 9.20508 7.48096 9C7.48096 8.79492 7.56201 8.59961 7.70703 8.45508C7.85156 8.31055 8.04785 8.22852 8.25244 8.22852L15.4194 8.22852L13.0825 5.79492C12.9409 5.64648 12.8638 5.44922 12.8682 5.24414C12.8726 5.03906 12.9575 4.8457 13.105 4.70312L13.104 4.70312Z" fill="#0C91DE" fill-opacity="1.000000" fill-rule="evenodd"/>
	<path id="Vector" d="M0 0.771484C0 0.566406 0.0810547 0.371094 0.226074 0.226562C0.370605 0.0820312 0.566895 0 0.771484 0L10.4966 0C10.7012 0 10.8975 0.0820312 11.042 0.226562C11.1865 0.371094 11.2681 0.566406 11.2681 0.771484L11.2681 3.85742C11.2681 4.0625 11.1865 4.25781 11.042 4.40234C10.8975 4.54688 10.7012 4.62891 10.4966 4.62891C10.292 4.62891 10.0957 4.54688 9.95117 4.40234C9.80664 4.25781 9.7251 4.0625 9.7251 3.85742L9.7251 1.54297L1.54297 1.54297L1.54297 16.457L9.72412 16.457L9.72412 14.1426C9.72412 13.9375 9.80518 13.7422 9.9502 13.5977C10.0947 13.4531 10.291 13.3711 10.4956 13.3711C10.7002 13.3711 10.8965 13.4531 11.041 13.5977C11.1855 13.7422 11.2671 13.9375 11.2671 14.1426L11.2671 17.2285C11.2671 17.4336 11.1855 17.6289 11.041 17.7734C10.8965 17.918 10.7002 18 10.4956 18L0.771484 18C0.566895 18 0.370605 17.918 0.226074 17.7734C0.0810547 17.6289 0 17.4336 0 17.2285L0 0.771484Z" fill="#0C91DE" fill-opacity="1.000000" fill-rule="evenodd"/>
</svg>
