<svg width="27" height="30" viewBox="0 0 27 30" fill="none" xmlns="http://www.w3.org/2000/svg">
<path d="M14.5221 13.6607H19.8793M14.5221 21.0943H19.8793M25.1121 26.7857C25.1121 27.354 24.8864 27.8991 24.4845 28.3009C24.0826 28.7028 23.5376 28.9286 22.9693 28.9286H3.68357C3.11525 28.9286 2.5702 28.7028 2.16834 28.3009C1.76648 27.8991 1.54071 27.354 1.54071 26.7857V3.21427C1.54071 2.64595 1.76648 2.1009 2.16834 1.69904C2.5702 1.29718 3.11525 1.07141 3.68357 1.07141H15.6536C16.2218 1.07153 16.7668 1.29738 17.1686 1.69927L24.4843 9.01498C24.8862 9.41675 25.112 9.96171 25.1121 10.53V26.7857Z" stroke="#1A7FDB" stroke-width="2" stroke-linecap="round" stroke-linejoin="round"/>
<path d="M6.23572 20.9721L8.03143 22.7678L11.025 18.5785M6.23572 13.4057L8.03143 15.2014L11.025 11.0121" stroke="#1A7FDB" stroke-width="2" stroke-linecap="round" stroke-linejoin="round"/>
</svg>
