<svg width="23" height="22" viewBox="0 0 23 22" fill="none" xmlns="http://www.w3.org/2000/svg">
<path d="M12.343 6.72599L6.6201 12.4489C6.20823 12.874 5.98 13.4439 5.98468 14.0358C5.98935 14.6277 6.22655 15.194 6.64508 15.6125C7.06362 16.0311 7.62992 16.2683 8.2218 16.2729C8.81368 16.2776 9.38366 16.0494 9.80875 15.6375L17.3151 8.14149C17.6771 7.78815 17.9654 7.36646 18.1633 6.90087C18.3611 6.43528 18.4646 5.93505 18.4676 5.42919C18.4707 4.92332 18.3733 4.42187 18.1811 3.95392C17.989 3.48596 17.7058 3.06081 17.3481 2.7031C16.9904 2.34539 16.5653 2.06224 16.0973 1.87007C15.6293 1.6779 15.1279 1.58052 14.622 1.58359C14.1162 1.58666 13.6159 1.69011 13.1503 1.88795C12.6848 2.08578 12.2631 2.37407 11.9097 2.73609L4.358 10.2878C3.84715 10.7841 3.44005 11.377 3.16037 12.032C2.88069 12.687 2.73401 13.3911 2.72886 14.1033C2.7237 14.8155 2.86018 15.5216 3.13035 16.1806C3.40053 16.8395 3.799 17.4383 4.30262 17.9419C4.80623 18.4455 5.40494 18.844 6.06392 19.1141C6.72291 19.3843 7.42903 19.5208 8.14123 19.5156C8.85343 19.5105 9.5575 19.3638 10.2125 19.0841C10.8675 18.8044 11.4604 18.3973 11.9567 17.8865L19.0135 10.8297" stroke="white" stroke-width="2" stroke-miterlimit="10" stroke-linecap="round"/>
</svg>
