<svg width="23.000000" height="23.000000" viewBox="0 0 27 27" fill="none" xmlns="http://www.w3.org/2000/svg" xmlns:xlink="http://www.w3.org/1999/xlink">
	<desc>
			Created with Pixso.
	</desc>
	<defs/>
	<path id="Vector" d="M9.33 1C10.09 1 10.72 1.62 10.72 2.38L10.72 9.33C10.72 10.1 10.09 10.72 9.33 10.72L2.38 10.72C1.62 10.72 1 10.1 1 9.33L1 2.38C1 1.62 1.62 1 2.38 1L9.33 1Z" stroke="#1A7FDB" stroke-opacity="1.000000" stroke-width="2.000000" stroke-linejoin="round"/>
	<path id="Vector" d="M9.33 16.27C10.09 16.27 10.72 16.89 10.72 17.66L10.72 24.61C10.72 25.37 10.09 26 9.33 26L2.38 26C1.62 26 1 25.37 1 24.61L1 17.66C1 16.89 1.62 16.27 2.38 16.27L9.33 16.27Z" stroke="#1A7FDB" stroke-opacity="1.000000" stroke-width="2.000000" stroke-linejoin="round"/>
	<path id="Vector" d="M16.27 2.38L26 2.38M16.27 9.33L26 9.33M16.27 17.66L26 17.66M16.27 24.61L26 24.61" stroke="#1A7FDB" stroke-opacity="1.000000" stroke-width="2.000000" stroke-linejoin="round" stroke-linecap="round"/>
</svg>
