<?xml version="1.0" standalone="no"?>
<!DOCTYPE svg PUBLIC "-//W3C//DTD SVG 20010904//EN"
 "http://www.w3.org/TR/2001/REC-SVG-20010904/DTD/svg10.dtd">
<svg version="1.0" xmlns="http://www.w3.org/2000/svg"
 width="268.000000pt" height="220.000000pt" viewBox="0 0 268.000000 220.000000"
 preserveAspectRatio="xMidYMid meet">

<g transform="translate(0.000000,220.000000) scale(0.100000,-0.100000)"
fill="#000000" stroke="none">
<path d="M1270 2117 c-34 -10 -185 -117 -594 -422 -302 -226 -561 -421 -577
-433 -56 -46 -30 -132 39 -132 32 0 61 19 202 125 l165 124 5 -616 5 -615 24
-19 c44 -36 119 -12 122 39 1 9 2 28 2 42 l2 25 668 3 667 2 0 -40 c0 -77 80
-119 128 -67 l22 23 2 613 3 614 166 -125 c132 -99 172 -124 201 -126 72 -5
104 73 51 122 -16 14 -136 106 -268 204 -132 98 -374 278 -537 400 -164 122
-312 231 -330 241 -44 26 -113 33 -168 18z m290 -293 c124 -92 238 -177 253
-190 l29 -24 -506 0 c-278 0 -506 3 -506 8 0 4 10 13 23 21 22 14 203 147 382
282 50 38 92 68 95 68 3 1 106 -74 230 -165z m440 -594 l0 -230 -670 0 -669 0
0 222 c0 122 2 225 5 230 3 4 304 8 670 8 l664 0 0 -230z m0 -610 l0 -230
-669 0 -669 0 -1 213 c-1 117 1 220 5 230 6 16 52 17 670 17 l664 0 0 -230z"/>
</g>
</svg>
