<svg width="30" height="30" viewBox="0 0 30 30" fill="none" xmlns="http://www.w3.org/2000/svg">
<path d="M17.4418 12.2094C17.4418 12.787 17.9107 13.2559 18.4884 13.2559H19.4511L16.6423 16.0647C16.6099 16.0972 16.5714 16.123 16.529 16.1405C16.4866 16.1581 16.4412 16.1672 16.3953 16.1672C16.3494 16.1672 16.304 16.1581 16.2616 16.1405C16.2193 16.123 16.1808 16.0972 16.1484 16.0647L13.9353 13.8517C13.4774 13.3941 12.8566 13.1371 12.2093 13.1371C11.562 13.1371 10.9411 13.3941 10.4832 13.8517L7.2837 17.0512C7.18088 17.147 7.09842 17.2626 7.04122 17.3909C6.98402 17.5193 6.95326 17.6579 6.95079 17.7984C6.94831 17.9389 6.97415 18.0785 7.02679 18.2088C7.07942 18.3391 7.15776 18.4575 7.25714 18.5568C7.35651 18.6562 7.47489 18.7346 7.6052 18.7872C7.7355 18.8398 7.87508 18.8657 8.0156 18.8632C8.15611 18.8607 8.29469 18.83 8.42306 18.7728C8.55143 18.7156 8.66697 18.6331 8.76277 18.5303L11.9623 15.3307C11.9947 15.2983 12.0332 15.2725 12.0756 15.2549C12.118 15.2373 12.1634 15.2283 12.2093 15.2283C12.2552 15.2283 12.3006 15.2373 12.343 15.2549C12.3854 15.2725 12.4239 15.2983 12.4563 15.3307L14.6693 17.5438C15.1272 18.0013 15.748 18.2584 16.3953 18.2584C17.0427 18.2584 17.6635 18.0013 18.1214 17.5438L20.9302 14.7363V15.6977C20.9302 15.9753 21.0405 16.2415 21.2367 16.4377C21.433 16.634 21.6992 16.7442 21.9767 16.7442C22.2543 16.7442 22.5205 16.634 22.7167 16.4377C22.913 16.2415 23.0232 15.9753 23.0232 15.6977V12.2094C23.0232 11.9318 22.913 11.6656 22.7167 11.4694C22.5205 11.2731 22.2543 11.1628 21.9767 11.1628H18.4884C18.2108 11.1628 17.9446 11.2731 17.7484 11.4694C17.5521 11.6656 17.4418 11.9318 17.4418 12.2094Z" fill="#1A7FDB"/>
<path fill-rule="evenodd" clip-rule="evenodd" d="M14.9205 0C11.6986 0 9.17442 8.31693e-08 7.20419 0.265116C5.1893 0.535814 3.5986 1.10233 2.34977 2.34977C1.10093 3.5986 0.535814 5.1893 0.265116 7.20558C8.31693e-08 9.17442 0 11.6986 0 14.9205V15.0795C0 18.3014 8.31693e-08 20.8256 0.265116 22.7958C0.535814 24.8107 1.10233 26.4014 2.34977 27.6502C3.5986 28.8991 5.1893 29.4642 7.20558 29.7349C9.17442 30 11.6986 30 14.9205 30H15.0795C18.3014 30 20.8256 30 22.7958 29.7349C24.8107 29.4642 26.4014 28.8977 27.6502 27.6502C28.8991 26.4014 29.4642 24.8107 29.7349 22.7944C30 20.8256 30 18.3014 30 15.0795V14.9205C30 11.6986 30 9.17442 29.7349 7.20419C29.4642 5.1893 28.8977 3.5986 27.6502 2.34977C26.4014 1.10093 24.8107 0.535814 22.7944 0.265116C20.8256 8.31693e-08 18.3014 0 15.0795 0H14.9205ZM3.83023 3.83023C4.62558 3.03488 5.7 2.5786 7.48465 2.3386C9.2986 2.09581 11.6819 2.09302 15 2.09302C18.3181 2.09302 20.7014 2.09581 22.5153 2.3386C24.3 2.5786 25.3758 3.03628 26.1712 3.83023C26.9651 4.62558 27.4214 5.7 27.6614 7.48465C27.9042 9.2986 27.907 11.6819 27.907 15C27.907 18.3181 27.9042 20.7014 27.6614 22.5153C27.4214 24.3 26.9637 25.3758 26.1698 26.1712C25.3744 26.9651 24.3 27.4214 22.5153 27.6614C20.7014 27.9042 18.3181 27.907 15 27.907C11.6819 27.907 9.2986 27.9042 7.48465 27.6614C5.7 27.4214 4.62419 26.9637 3.82884 26.1698C3.03488 25.3744 2.5786 24.3 2.3386 22.5153C2.09581 20.7014 2.09302 18.3181 2.09302 15C2.09302 11.6819 2.09581 9.2986 2.3386 7.48465C2.5786 5.7 3.03628 4.62558 3.83023 3.83023Z" fill="#1A7FDB"/>
</svg>
