<svg width="34" height="27" viewBox="0 0 34 27" fill="none" xmlns="http://www.w3.org/2000/svg">
<path d="M27.4022 10.2271L31.6316 13.3787L31.6314 13.3789L31.6372 13.3826C31.8461 13.5172 32.067 13.577 32.297 13.5563C32.5356 13.5348 32.7352 13.4106 32.8946 13.1989C33.053 12.9885 33.1232 12.764 33.0933 12.5293C33.0633 12.295 32.9411 12.0976 32.7378 11.9383L32.7378 11.9382L32.7359 11.9368L18.6358 1.41553L18.6354 1.41528C18.3925 1.23558 18.1286 1.10412 17.8441 1.02139C17.5622 0.939405 17.276 0.898898 16.9859 0.900023C16.6963 0.901145 16.4111 0.941574 16.1307 1.02122C15.8467 1.10186 15.582 1.23411 15.3368 1.41718L15.3367 1.41722L1.26756 11.9353L1.26679 11.9358C1.0567 12.0961 0.931582 12.2953 0.905221 12.5326M27.4022 10.2271L1.70759 13.5562C1.46953 13.5335 1.27016 13.4097 1.11075 13.1991M27.4022 10.2271V25.6052C27.4022 25.8618 27.3143 26.0813 27.1378 26.2566C26.9617 26.4315 26.7421 26.5192 26.4858 26.5204C26.2287 26.5216 26.0089 26.4336 25.8337 26.2558C25.659 26.0788 25.5717 25.8597 25.5717 25.6052V24.8899H8.43186V25.6052C8.43186 25.8619 8.34398 26.0813 8.16753 26.2566C7.99239 26.4327 7.77308 26.5204 7.51663 26.5204C7.25994 26.5204 7.04046 26.4325 6.86523 26.2561C6.69041 26.08 6.60261 25.861 6.60141 25.6056L6.6014 25.6052L6.6014 10.2271L2.37198 13.3787L2.36683 13.3825L2.36671 13.3824C2.15774 13.5181 1.93711 13.5782 1.70764 13.5562L27.4022 10.2271ZM0.905221 12.5326C0.905223 12.5326 0.905225 12.5325 0.905227 12.5325L1.00461 12.5436L0.905221 12.5326ZM0.905221 12.5326C0.879069 12.7668 0.951516 12.9902 1.11075 13.1991M1.11075 13.1991C1.11082 13.1992 1.1109 13.1993 1.11097 13.1994L1.19048 13.1387L1.11075 13.1991ZM25.5717 9.33869V15.2822H8.43186V9.33869H25.5717ZM25.5717 17.1127V23.0595H8.43186V17.1127H25.5717ZM23.7382 7.50661H10.2343L16.9863 2.50546L23.7382 7.50661Z" fill="#1A7FDB" stroke="#1A7FDB" stroke-width="0.2"/>
</svg>
