<svg width="32" height="21" viewBox="0 0 32 21" fill="none" xmlns="http://www.w3.org/2000/svg">
<path d="M14.6368 14.6044C16.0005 13.6965 17.0358 12.3739 17.5897 10.8321C18.1435 9.29037 18.1865 7.61128 17.7123 6.04318C17.2381 4.47507 16.2718 3.10121 14.9563 2.12476C13.6409 1.1483 12.0461 0.621094 10.4079 0.621094C8.76965 0.621094 7.17489 1.1483 5.85946 2.12476C4.54402 3.10121 3.57774 4.47507 3.1035 6.04318C2.62927 7.61128 2.67226 9.29037 3.22612 10.8321C3.77998 12.3739 4.8153 13.6965 6.17898 14.6044C3.71221 15.5136 1.60553 17.196 0.173293 19.4006C0.0980198 19.5124 0.0457346 19.6382 0.0194771 19.7704C-0.00678035 19.9027 -0.00648637 20.0388 0.020342 20.171C0.0471703 20.3031 0.0999979 20.4286 0.175754 20.5402C0.25151 20.6517 0.348683 20.7471 0.461626 20.8208C0.574568 20.8944 0.701026 20.9449 0.83365 20.9693C0.966273 20.9936 1.10242 20.9914 1.23417 20.9627C1.36592 20.934 1.49064 20.8794 1.6011 20.802C1.71155 20.7247 1.80553 20.6261 1.87758 20.5122C2.80144 19.0912 4.06562 17.9236 5.55531 17.1153C7.04501 16.3069 8.71303 15.8836 10.4079 15.8836C12.1028 15.8836 13.7708 16.3069 15.2605 17.1153C16.7502 17.9236 18.0144 19.0912 18.9382 20.5122C19.0874 20.734 19.318 20.8881 19.58 20.9413C19.8419 20.9945 20.1143 20.9424 20.3383 20.7964C20.5622 20.6503 20.7196 20.422 20.7765 20.1608C20.8335 19.8996 20.7853 19.6265 20.6425 19.4006C19.2103 17.196 17.1036 15.5136 14.6368 14.6044ZM4.81174 8.25531C4.81174 7.14849 5.13995 6.06653 5.75486 5.14625C6.36978 4.22597 7.24377 3.5087 8.26634 3.08514C9.2889 2.66158 10.4141 2.55075 11.4996 2.76668C12.5852 2.98261 13.5823 3.51559 14.365 4.29823C15.1476 5.08087 15.6806 6.078 15.8965 7.16355C16.1124 8.2491 16.0016 9.3743 15.5781 10.3969C15.1545 11.4194 14.4372 12.2934 13.5169 12.9083C12.5967 13.5233 11.5147 13.8515 10.4079 13.8515C8.92422 13.8498 7.50179 13.2596 6.45267 12.2105C5.40356 11.1614 4.81342 9.73898 4.81174 8.25531ZM31.5385 20.8085C31.3124 20.9559 31.0372 21.0074 30.7731 20.9519C30.5091 20.8963 30.2779 20.7381 30.1305 20.5122C29.2078 19.0904 27.9437 17.9222 26.4537 17.1142C24.9637 16.3063 23.2952 15.8842 21.6002 15.8864C21.3303 15.8864 21.0715 15.7792 20.8807 15.5884C20.6899 15.3976 20.5827 15.1388 20.5827 14.8689C20.5827 14.5991 20.6899 14.3403 20.8807 14.1495C21.0715 13.9587 21.3303 13.8515 21.6002 13.8515C22.4243 13.8507 23.2381 13.6679 23.9834 13.3162C24.7287 12.9644 25.3871 12.4524 25.9116 11.8167C26.436 11.181 26.8136 10.4373 27.0174 9.6388C27.2211 8.84026 27.246 8.00657 27.0902 7.19731C26.9343 6.38805 26.6017 5.6232 26.1161 4.95739C25.6304 4.29158 25.0037 3.74126 24.2806 3.34574C23.5576 2.95023 22.7562 2.71929 21.9336 2.66941C21.111 2.61954 20.2875 2.75197 19.522 3.05724C19.3972 3.1112 19.2628 3.13959 19.1269 3.14074C18.9909 3.14189 18.8561 3.11577 18.7304 3.06393C18.6046 3.0121 18.4906 2.93559 18.395 2.83893C18.2993 2.74227 18.224 2.62743 18.1735 2.50118C18.123 2.37493 18.0984 2.23984 18.101 2.10389C18.1035 1.96794 18.1334 1.83389 18.1886 1.70966C18.2439 1.58542 18.3235 1.47353 18.4228 1.38059C18.522 1.28765 18.6389 1.21555 18.7665 1.16854C20.5184 0.469852 22.467 0.444709 24.2364 1.09796C26.0058 1.75122 27.4706 3.03658 28.3481 4.7061C29.2257 6.37561 29.4539 8.31097 28.9888 10.1388C28.5236 11.9667 27.398 13.5575 25.8291 14.6044C28.2959 15.5136 30.4026 17.196 31.8348 19.4006C31.9822 19.6266 32.0338 19.9019 31.9782 20.1659C31.9226 20.4299 31.7644 20.6611 31.5385 20.8085Z" fill="#1A7FDB"/>
</svg>
