<svg width="24" height="25" viewBox="0 0 24 25" fill="none" xmlns="http://www.w3.org/2000/svg">
<path fill-rule="evenodd" clip-rule="evenodd" d="M5.41935 6.58065C5.41935 5.71646 5.58957 4.86074 5.92028 4.06234C6.25099 3.26394 6.73571 2.5385 7.34678 1.92743C7.95785 1.31636 8.6833 0.83163 9.4817 0.500922C10.2801 0.170213 11.1358 0 12 0C12.8642 0 13.7199 0.170213 14.5183 0.500922C15.3167 0.83163 16.0421 1.31636 16.6532 1.92743C17.2643 2.5385 17.749 3.26394 18.0797 4.06234C18.4104 4.86074 18.5806 5.71646 18.5806 6.58065C18.5806 8.32594 17.8873 9.99975 16.6532 11.2339C15.4191 12.468 13.7453 13.1613 12 13.1613C10.2547 13.1613 8.58089 12.468 7.34678 11.2339C6.11267 9.99975 5.41935 8.32594 5.41935 6.58065ZM12 2.32258C10.8707 2.32258 9.78763 2.7712 8.98909 3.56974C8.19055 4.36828 7.74194 5.45134 7.74194 6.58065C7.74194 7.70995 8.19055 8.79301 8.98909 9.59155C9.78763 10.3901 10.8707 10.8387 12 10.8387C13.1293 10.8387 14.2124 10.3901 15.0109 9.59155C15.8094 8.79301 16.2581 7.70995 16.2581 6.58065C16.2581 5.45134 15.8094 4.36828 15.0109 3.56974C14.2124 2.7712 13.1293 2.32258 12 2.32258ZM5.80645 16.2581C4.88247 16.2581 3.99634 16.6251 3.34298 17.2785C2.68963 17.9318 2.32258 18.818 2.32258 19.7419V21.5814C2.32258 21.6093 2.34271 21.6341 2.37058 21.6387C8.74839 22.6792 15.2532 22.6792 21.6294 21.6387C21.643 21.6365 21.6552 21.6295 21.664 21.619C21.6729 21.6085 21.6776 21.5951 21.6774 21.5814V19.7419C21.6774 18.818 21.3104 17.9318 20.657 17.2785C20.0037 16.6251 19.1175 16.2581 18.1935 16.2581H17.6671C17.6256 16.2577 17.5843 16.264 17.5448 16.2766L16.2054 16.7148C13.4728 17.607 10.5272 17.607 7.79458 16.7148L6.45368 16.2766C6.41514 16.2643 6.37492 16.258 6.33445 16.2581H5.80645ZM0 19.7419C0 18.202 0.611749 16.7251 1.70067 15.6362C2.78959 14.5472 4.26648 13.9355 5.80645 13.9355H6.3329C6.61935 13.9355 6.90426 13.9819 7.17523 14.0686L8.51613 14.5068C10.7799 15.2458 13.2201 15.2458 15.4839 14.5068L16.8248 14.0686C17.0957 13.9804 17.3806 13.9355 17.6655 13.9355H18.1935C19.7335 13.9355 21.2104 14.5472 22.2993 15.6362C23.3883 16.7251 24 18.202 24 19.7419V21.5814C24 22.7489 23.1546 23.743 22.0026 23.9303C15.378 25.0118 8.62196 25.0118 1.99742 23.9303C1.43988 23.8395 0.932812 23.5534 0.566878 23.1231C0.200945 22.6928 8.60046e-06 22.1463 0 21.5814V19.7419Z" fill="white"/>
</svg>
